<svg width="32" height="32" viewBox="0 0 32 32" fill="none" xmlns="http://www.w3.org/2000/svg">
  <defs>
    <linearGradient id="faviconGradient" x1="0%" y1="0%" x2="100%" y2="100%">
      <stop offset="0%" stop-color="#3b82f6" />
      <stop offset="50%" stop-color="#6366f1" />
      <stop offset="100%" stop-color="#8b5cf6" />
    </linearGradient>
    <linearGradient id="faviconToolGradient" x1="0%" y1="0%" x2="100%" y2="100%">
      <stop offset="0%" stop-color="#f59e0b" />
      <stop offset="100%" stop-color="#f97316" />
    </linearGradient>
  </defs>
  
  <!-- Base rounded square -->
  <rect x="1" y="1" width="30" height="30" rx="5" fill="url(#faviconGradient)" />
  
  <!-- QR Code pattern -->
  <g fill="white" opacity="0.9">
    <!-- Corner markers -->
    <rect x="4" y="4" width="6" height="6" rx="1" />
    <rect x="22" y="4" width="6" height="6" rx="1" />
    <rect x="4" y="22" width="6" height="6" rx="1" />
    
    <!-- Inner squares -->
    <rect x="5.5" y="5.5" width="3" height="3" rx="0.5" fill="url(#faviconGradient)" />
    <rect x="23.5" y="5.5" width="3" height="3" rx="0.5" fill="url(#faviconGradient)" />
    <rect x="5.5" y="23.5" width="3" height="3" rx="0.5" fill="url(#faviconGradient)" />
    
    <!-- Data pattern -->
    <rect x="12" y="5" width="1.5" height="1.5" rx="0.3" />
    <rect x="15" y="5" width="1.5" height="1.5" rx="0.3" />
    <rect x="18" y="5" width="1.5" height="1.5" rx="0.3" />
    
    <rect x="12" y="8" width="1.5" height="1.5" rx="0.3" />
    <rect x="18" y="8" width="1.5" height="1.5" rx="0.3" />
    
    <rect x="12" y="11" width="1.5" height="1.5" rx="0.3" />
    <rect x="15" y="11" width="1.5" height="1.5" rx="0.3" />
    
    <rect x="18" y="14" width="1.5" height="1.5" rx="0.3" />
    <rect x="21" y="14" width="1.5" height="1.5" rx="0.3" />
    
    <rect x="12" y="17" width="1.5" height="1.5" rx="0.3" />
    <rect x="18" y="17" width="1.5" height="1.5" rx="0.3" />
    
    <rect x="15" y="20" width="1.5" height="1.5" rx="0.3" />
    <rect x="21" y="20" width="1.5" height="1.5" rx="0.3" />
    
    <rect x="12" y="23" width="1.5" height="1.5" rx="0.3" />
    <rect x="18" y="23" width="1.5" height="1.5" rx="0.3" />
    <rect x="21" y="23" width="1.5" height="1.5" rx="0.3" />
  </g>
  
  <!-- Craft tool (stylized brush/pen) -->
  <g transform="translate(21, 18)">
    <path 
      d="M1.5 1.5 L7 7 L5.5 8.5 L0 3 Z" 
      fill="url(#faviconToolGradient)" 
      opacity="0.95"
    />
    <circle cx="1" cy="2" r="1" fill="url(#faviconToolGradient)" opacity="0.8" />
    <path 
      d="M5.5 8.5 L7 10 L5.5 11.5 L4 10 Z" 
      fill="#ef4444" 
      opacity="0.9"
    />
  </g>
</svg> 